<?xml version="1.0" standalone="no"?>
<!DOCTYPE svg PUBLIC "-//W3C//DTD SVG 20010904//EN"
 "http://www.w3.org/TR/2001/REC-SVG-20010904/DTD/svg10.dtd">
<svg version="1.0" xmlns="http://www.w3.org/2000/svg"
 width="300.000000pt" height="212.000000pt" viewBox="0 0 300.000000 212.000000"
 preserveAspectRatio="xMidYMid meet">
<metadata>
Created by potrace 1.16, written by Peter Selinger 2001-2019
</metadata>
<g transform="translate(0.000000,212.000000) scale(0.100000,-0.100000)"
fill="#000000" stroke="none">
<path d="M1218 1823 c-33 -136 -80 -211 -152 -244 -32 -14 -36 -18 -18 -18 33
-1 95 33 125 69 28 32 67 143 67 189 0 22 6 16 32 -33 43 -78 111 -152 152
-166 61 -20 162 16 289 102 31 21 57 43 57 49 0 11 0 11 -77 -38 -111 -70
-216 -93 -281 -59 -36 18 -101 97 -141 168 -14 26 -29 48 -32 48 -3 0 -12 -30
-21 -67z"/>
<path d="M1832 1523 c-7 -2 -22 -22 -32 -44 -17 -32 -26 -39 -50 -39 -19 0
-38 -10 -57 -30 -28 -30 -30 -31 -78 -20 -46 10 -106 4 -159 -16 -17 -7 -18
-4 -12 29 l7 36 -98 31 c-53 16 -105 30 -114 30 -9 0 -29 -18 -45 -41 -15 -22
-35 -46 -44 -52 -9 -7 -25 -43 -35 -81 l-19 -69 -20 61 c-12 33 -24 64 -28 67
-10 10 -118 -6 -128 -19 -5 -6 -25 -30 -44 -52 -20 -23 -36 -52 -36 -65 -1
-24 -1 -24 -16 -4 -8 11 -24 46 -36 77 -11 32 -26 62 -32 67 -8 6 -41 3 -96
-11 -77 -18 -90 -25 -132 -68 -30 -30 -48 -57 -48 -72 0 -39 182 -529 198
-536 9 -3 57 0 106 6 84 10 93 14 118 44 15 18 33 48 40 66 14 36 28 42 28 12
0 -12 7 -34 15 -50 17 -34 30 -35 133 -21 57 9 66 14 107 58 24 27 52 69 61
96 l16 49 18 -29 c67 -111 186 -131 333 -55 4 2 7 -6 7 -17 0 -31 18 -34 122
-24 92 9 93 9 133 -19 87 -60 232 -72 334 -27 103 45 151 108 208 270 33 96
36 113 37 227 1 99 -2 125 -14 133 -14 9 -132 4 -173 -7 -26 -8 -65 -93 -77
-169 -19 -117 -45 -159 -97 -153 -22 2 -33 13 -53 53 -23 47 -25 61 -27 215
l-1 165 -104 2 c-57 1 -109 -1 -116 -4z m193 -155 c0 -210 34 -298 115 -298
22 0 48 8 63 20 38 30 76 117 93 211 8 45 16 85 19 87 6 6 139 20 145 15 11
-9 4 -211 -8 -253 -16 -52 -80 -160 -102 -171 -8 -4 -73 -18 -145 -32 -117
-22 -133 -23 -160 -10 l-30 14 24 -21 c13 -11 20 -20 16 -20 -15 0 -52 25 -86
57 l-37 35 -2 111 c-1 62 -5 159 -9 217 l-6 105 -37 3 c-35 3 -38 6 -38 33 l0
29 93 0 92 0 0 -132z m-774 85 c-13 -26 -65 -223 -59 -228 2 -2 38 4 80 14
l76 18 -16 -46 c-17 -45 -17 -45 -89 -62 -40 -9 -75 -14 -77 -12 -2 3 -10 -12
-17 -31 -7 -20 -19 -36 -26 -36 -16 0 -16 5 -3 28 5 9 34 97 65 195 31 97 61
177 66 177 6 0 6 -7 0 -17z m650 -258 c3 -121 5 -222 3 -224 -7 -8 -152 -24
-167 -18 -12 4 -17 18 -17 42 l0 36 -33 -25 c-101 -78 -212 -75 -284 7 -55 63
-58 98 -20 213 33 96 35 99 79 122 66 34 141 34 207 0 l51 -27 0 44 0 44 73 4
c39 2 79 3 87 2 13 0 16 -34 21 -220z m-971 58 c-6 -32 -13 -69 -16 -81 -3
-16 -1 -21 6 -17 12 8 117 34 136 35 7 0 15 -11 18 -24 3 -13 8 -30 11 -38 4
-10 -11 -17 -57 -27 -35 -7 -78 -17 -95 -21 -23 -6 -33 -5 -33 3 0 9 -2 9 -8
0 -4 -7 -39 -19 -77 -28 -39 -9 -78 -18 -88 -21 -13 -4 -21 4 -32 30 -8 19
-15 37 -15 39 0 3 27 10 61 16 34 7 67 15 73 17 7 3 18 -7 24 -21 16 -34 34
-28 45 16 28 115 50 189 54 185 3 -2 0 -31 -7 -63z"/>
<path d="M1520 1259 c-40 -16 -60 -49 -59 -99 l0 -45 16 32 c20 39 41 48 77
32 28 -13 40 -41 34 -80 -3 -21 -8 -24 -42 -23 -30 1 -35 -1 -22 -8 29 -16 83
0 110 33 73 86 -9 199 -114 158z"/>
<path d="M2700 1398 c-26 -59 -50 -154 -50 -198 0 -52 40 -128 101 -190 l54
-55 -56 3 c-158 10 -224 -59 -235 -248 -6 -94 9 -94 19 0 4 32 20 81 39 119
45 88 81 106 201 105 48 -1 87 -1 87 0 0 1 -24 26 -52 57 -83 87 -110 145
-110 233 0 39 8 103 17 140 8 38 13 71 10 74 -2 3 -14 -15 -25 -40z"/>
<path d="M271 908 c48 -45 89 -112 89 -148 0 -33 -37 -97 -81 -141 -22 -22
-39 -42 -37 -44 2 -2 28 1 58 7 75 14 197 6 238 -16 18 -9 56 -39 84 -66 29
-28 54 -48 56 -45 3 2 -8 24 -23 47 -71 109 -113 132 -240 126 l-91 -4 33 49
c70 105 52 168 -72 251 -59 39 -66 32 -14 -16z"/>
</g>
</svg>
