<?xml version="1.0" standalone="no"?>
<!DOCTYPE svg PUBLIC "-//W3C//DTD SVG 20010904//EN"
 "http://www.w3.org/TR/2001/REC-SVG-20010904/DTD/svg10.dtd">
<svg version="1.0" xmlns="http://www.w3.org/2000/svg"
 width="720.000000pt" height="720.000000pt" viewBox="0 0 720.000000 720.000000"
 preserveAspectRatio="xMidYMid meet">
<metadata>
Created by potrace 1.16, written by Peter Selinger 2001-2019
</metadata>
<g transform="translate(0.000000,720.000000) scale(0.100000,-0.100000)"
fill="#000000" stroke="none">
<path d="M3180 5389 c-193 -20 -313 -40 -351 -59 -9 -5 -37 -11 -63 -15 -25
-4 -49 -11 -52 -16 -3 -5 -15 -9 -27 -9 -12 0 -34 -6 -48 -14 -14 -7 -38 -16
-52 -20 -15 -3 -52 -18 -82 -31 -29 -14 -61 -25 -69 -25 -9 0 -16 -4 -16 -9 0
-5 -12 -12 -27 -16 -15 -3 -30 -10 -33 -13 -3 -4 -34 -22 -69 -40 -93 -48
-241 -142 -241 -152 0 -5 -9 -12 -21 -15 -12 -4 -31 -15 -43 -25 -51 -44 -66
-57 -110 -95 -42 -36 -119 -113 -198 -197 -15 -16 -45 -50 -65 -76 -21 -26
-41 -48 -45 -50 -5 -2 -8 -8 -8 -14 0 -5 -6 -16 -14 -24 -22 -22 -156 -239
-156 -252 0 -7 -4 -12 -9 -12 -5 0 -12 -13 -16 -30 -4 -16 -11 -30 -16 -30 -5
0 -9 -5 -9 -11 0 -10 -48 -121 -71 -161 -5 -10 -9 -23 -9 -30 0 -7 -6 -25 -14
-40 -8 -15 -17 -42 -21 -60 -3 -18 -10 -42 -14 -53 -27 -68 -48 -156 -62 -265
-6 -41 -16 -93 -22 -115 -15 -50 -16 -523 -2 -545 6 -8 15 -55 21 -105 7 -49
19 -119 28 -155 9 -36 20 -77 23 -93 3 -15 9 -30 14 -33 5 -3 9 -15 9 -27 0
-12 7 -35 15 -50 8 -15 17 -43 21 -62 3 -19 10 -35 15 -35 5 0 9 -8 9 -17 0
-21 160 -343 180 -363 14 -14 50 -70 50 -79 0 -5 3 -11 8 -13 4 -2 27 -30 52
-63 82 -110 224 -261 322 -343 65 -53 68 -58 68 -99 0 -42 0 -43 35 -43 l35 0
0 -290 0 -290 -35 0 -35 0 0 -90 0 -90 185 0 185 0 0 90 0 90 -35 0 -35 0 1
218 c1 119 3 208 6 197 4 -18 147 -537 159 -577 5 -16 21 -18 153 -18 l148 0
54 205 54 206 30 -3 30 -3 3 -112 3 -113 -36 0 -35 0 0 -90 0 -90 215 0 215 0
0 90 0 90 -35 0 -35 0 0 96 c0 88 2 95 18 89 9 -4 54 -10 100 -13 l82 -5 0
-83 0 -84 -35 0 -35 0 0 -90 0 -90 220 0 220 0 0 90 0 90 -40 0 -40 0 0 100 0
100 63 0 c107 0 187 18 272 60 45 22 84 40 87 40 4 0 19 5 35 12 15 6 49 19
76 28 l47 17 0 -179 0 -178 -40 0 -40 0 0 -90 0 -90 410 0 410 0 0 155 0 155
-120 0 -120 0 0 -65 0 -65 -105 0 -105 0 0 105 0 105 130 0 130 0 0 95 0 95
-130 0 -130 0 0 60 c0 33 4 60 9 60 6 0 30 14 54 30 35 24 56 30 96 30 l51 0
0 -60 0 -60 120 0 120 0 0 154 0 155 -47 3 -46 3 64 67 c100 105 164 179 167
194 2 8 7 14 12 14 5 0 19 17 31 38 13 20 26 39 29 42 12 10 70 101 70 111 0
5 5 9 10 9 6 0 10 6 10 14 0 8 6 21 13 28 16 17 107 199 107 216 0 6 4 12 8
12 4 0 17 26 27 57 11 32 25 69 32 83 7 14 13 33 13 42 0 9 4 19 9 22 5 4 12
29 16 56 4 28 10 50 15 50 4 0 11 26 15 58 4 31 10 62 15 67 4 6 10 28 13 50
3 22 11 72 18 110 16 93 16 547 0 640 -7 39 -15 88 -18 110 -3 22 -9 45 -13
50 -5 6 -12 34 -16 63 -3 28 -10 52 -14 52 -4 0 -10 22 -14 50 -4 27 -11 52
-16 55 -6 3 -10 15 -10 27 0 11 -7 36 -16 56 -9 21 -20 46 -24 57 -5 11 -18
41 -29 67 -12 26 -21 52 -21 57 0 6 -4 11 -9 11 -5 0 -12 12 -16 27 -3 15 -10
30 -13 33 -4 3 -16 23 -27 45 -11 22 -26 46 -32 53 -7 7 -13 20 -13 28 0 8 -4
14 -10 14 -5 0 -10 6 -10 13 0 8 -13 33 -30 55 -16 23 -30 46 -30 52 0 5 -4
10 -8 10 -4 0 -26 26 -49 58 -60 85 -269 312 -287 312 -5 0 -18 10 -30 23 -27
28 -86 77 -116 97 -12 8 -28 20 -34 25 -23 22 -154 105 -165 105 -6 0 -11 4
-11 8 0 10 -120 72 -138 72 -7 0 -12 4 -12 9 0 5 -13 12 -30 16 -16 4 -30 11
-30 16 0 5 -5 9 -11 9 -6 0 -27 7 -47 16 -21 9 -51 23 -69 30 -17 8 -38 14
-46 14 -9 0 -18 4 -22 9 -3 6 -26 13 -50 17 -25 3 -47 10 -50 14 -3 5 -24 11
-48 15 -23 3 -51 10 -62 14 -49 20 -164 40 -350 61 -95 10 -271 10 -375 -1z
m535 -74 c301 -53 567 -153 805 -300 840 -520 1232 -1526 964 -2470 -108 -379
-307 -711 -591 -987 l-90 -88 -77 0 c-44 0 -76 4 -76 10 0 6 4 10 8 10 15 0
162 142 156 151 -7 12 -2874 12 -2892 0 -10 -6 12 -30 79 -87 l92 -79 -59 -3
c-32 -2 -62 -8 -65 -14 -15 -24 -230 190 -350 347 -365 477 -522 1104 -423
1690 78 466 281 861 614 1196 364 367 853 598 1360 643 103 9 458 -3 545 -19z
m-1005 -3965 c0 -20 -62 -257 -71 -271 -7 -12 -12 -12 -35 1 -23 13 -32 32
-60 135 -18 66 -33 126 -34 133 0 9 26 12 100 12 62 0 100 -4 100 -10z m617
-20 c5 -26 10 -30 39 -30 l34 0 0 -180 0 -180 -72 0 c-40 0 -90 3 -110 6 l-38
7 0 173 0 174 34 0 c30 0 35 4 41 30 6 25 11 30 36 30 25 0 30 -5 36 -30z
m860 0 c5 -27 9 -30 44 -30 l39 0 0 -84 0 -85 -77 -29 c-43 -17 -79 -29 -80
-28 -2 1 2 18 7 37 14 49 12 128 -5 185 -20 66 -21 64 25 64 37 0 41 -3 47
-30z m-382 -44 c81 -34 87 -165 10 -206 -15 -8 -53 -15 -84 -15 l-56 0 -3 118
-3 117 51 0 c28 0 66 -6 85 -14z"/>
<path d="M3142 5220 c-284 -30 -594 -134 -846 -284 -193 -115 -455 -347 -588
-521 -135 -178 -248 -388 -319 -595 -91 -263 -132 -575 -109 -825 15 -173 59
-406 81 -429 4 -5 848 -9 2010 -9 1880 0 2002 1 2011 17 5 9 24 83 41 164 29
141 31 158 31 392 1 255 -7 334 -55 521 -185 736 -775 1328 -1508 1514 -53 13
-139 31 -191 40 -112 19 -437 28 -558 15z m108 -300 c88 -26 220 -86 220 -101
0 -6 -10 -8 -22 -4 -46 13 -55 15 -135 24 -517 57 -958 -409 -869 -918 59
-336 319 -598 654 -656 107 -19 158 -19 267 0 48 9 90 14 92 11 7 -7 -82 -50
-163 -79 -100 -36 -217 -51 -343 -44 -232 13 -429 102 -592 268 -346 351 -345
911 1 1259 130 131 280 215 455 254 103 23 334 16 435 -14z m695 -330 c19
-101 36 -185 38 -187 3 -2 55 64 117 147 95 127 130 166 130 146 0 -2 -22 -82
-49 -177 -28 -95 -48 -176 -46 -180 3 -3 78 31 167 78 90 46 168 82 174 81 6
-2 -44 -66 -113 -142 -68 -76 -121 -141 -118 -144 6 -7 226 -4 320 4 62 6 68
5 55 -8 -8 -8 -88 -46 -177 -83 -90 -37 -163 -71 -163 -75 0 -4 73 -38 163
-75 89 -37 169 -75 177 -83 13 -12 6 -13 -60 -8 -109 8 -308 11 -315 5 -3 -4
50 -69 118 -145 69 -76 119 -140 113 -142 -7 -1 -84 35 -171 81 -88 47 -163
82 -167 78 -5 -5 54 -238 88 -343 14 -45 -22 -6 -127 134 l-114 151 -12 -44
c-6 -24 -23 -110 -38 -191 -15 -81 -31 -145 -35 -143 -9 6 -8 1 -46 205 -15
80 -30 151 -33 158 -5 8 -47 -41 -114 -132 -112 -150 -145 -188 -135 -151 96
336 105 381 75 357 -25 -20 -319 -164 -324 -159 -3 3 49 67 116 142 67 74 121
139 121 144 0 7 -181 6 -328 -3 -30 -1 -51 1 -49 7 1 5 77 40 167 79 91 38
169 73 173 77 4 4 -66 38 -155 76 -90 37 -172 74 -183 82 -16 11 13 12 185 6
l205 -6 -65 73 c-157 177 -190 215 -190 222 0 10 31 -5 150 -67 176 -93 189
-99 195 -93 6 6 -69 296 -90 351 -18 45 28 -5 128 -140 60 -80 113 -141 117
-137 5 5 20 72 34 149 29 153 45 219 52 212 3 -2 20 -86 39 -187z"/>
<path d="M1485 2229 c10 -29 96 -183 132 -233 l33 -46 1722 2 1723 3 42 65
c58 88 125 218 116 223 -5 3 -855 5 -1891 5 -1836 0 -1882 -1 -1877 -19z"/>
<path d="M2551 463 c-47 -24 -72 -62 -78 -115 -10 -91 47 -158 137 -158 25 0
56 6 70 13 37 19 70 74 70 118 0 38 1 39 35 39 31 0 35 3 35 25 0 14 5 25 10
25 6 0 10 -32 10 -75 0 -60 -3 -75 -15 -75 -10 0 -15 -10 -15 -30 l0 -30 75 0
75 0 0 30 c0 20 -5 30 -15 30 -12 0 -15 15 -15 75 0 43 4 75 10 75 6 0 10 -11
10 -25 0 -22 4 -25 35 -25 32 0 35 -2 35 -30 0 -82 59 -140 140 -140 57 0 88
16 117 59 41 61 24 170 -32 207 -17 11 -47 18 -81 18 -61 1 -99 -21 -126 -75
l-18 -34 0 53 0 52 -135 0 -135 0 0 -47 -1 -48 -14 32 c-17 40 -50 61 -106 68
-32 5 -54 1 -78 -12z"/>
<path d="M4430 469 c-35 -15 -61 -39 -76 -74 -13 -30 -13 -30 -14 23 l0 52
-135 0 -135 0 0 -55 0 -55 35 0 c31 0 35 3 35 25 0 14 5 25 10 25 6 0 10 -32
10 -75 0 -60 -3 -75 -15 -75 -10 0 -15 -10 -15 -30 l0 -30 75 0 75 0 0 30 c0
20 -5 30 -15 30 -12 0 -15 15 -15 75 0 43 4 75 10 75 6 0 10 -11 10 -25 0 -22
4 -25 35 -25 32 0 35 -2 35 -30 0 -82 59 -140 140 -140 57 0 88 16 117 59 40
60 24 170 -29 205 -31 20 -106 29 -138 15z"/>
<path d="M1940 441 c0 -21 5 -31 15 -31 12 0 15 -16 15 -80 0 -64 -3 -80 -15
-80 -9 0 -15 -9 -15 -25 0 -24 2 -25 70 -25 68 0 70 1 70 25 0 16 -6 25 -15
25 -9 0 -15 9 -15 24 0 22 6 26 44 31 55 9 86 36 86 75 0 20 5 30 15 30 12 0
15 -16 15 -80 0 -64 -3 -80 -15 -80 -9 0 -15 -9 -15 -25 0 -24 2 -25 70 -25
68 0 70 1 70 25 0 16 -6 25 -15 25 -9 0 -15 9 -15 25 0 22 4 25 35 25 31 0 35
-3 35 -25 0 -16 -6 -25 -15 -25 -9 0 -15 -9 -15 -25 0 -24 2 -25 70 -25 68 0
70 1 70 25 0 14 -4 25 -10 25 -6 0 -10 33 -10 80 0 47 4 80 10 80 6 0 10 14
10 30 l0 30 -70 0 -70 0 0 -30 c0 -20 5 -30 15 -30 9 0 15 -9 15 -25 0 -22 -4
-25 -35 -25 -31 0 -35 3 -35 25 0 16 6 25 15 25 10 0 15 10 15 30 l0 30 -70 0
c-65 0 -70 -2 -70 -22 0 -21 0 -21 -21 -2 -17 15 -40 20 -120 22 l-99 4 0 -31z"/>
<path d="M3400 440 c0 -20 5 -30 15 -30 22 0 22 -145 0 -154 -8 -3 -15 -17
-15 -31 l0 -25 120 0 120 0 0 45 c0 45 0 45 -35 45 -24 0 -35 -5 -35 -15 0 -9
-9 -15 -25 -15 -20 0 -25 5 -25 25 0 22 4 25 35 25 32 0 35 2 35 30 0 28 -3
30 -35 30 -28 0 -35 4 -35 20 0 15 7 20 25 20 16 0 25 -6 25 -15 0 -10 11 -15
35 -15 35 0 35 0 35 45 l0 45 -120 0 -120 0 0 -30z"/>
<path d="M3650 440 c0 -20 5 -30 15 -30 22 0 22 -145 0 -154 -8 -3 -15 -17
-15 -31 0 -25 0 -25 90 -25 137 0 180 33 180 138 0 93 -57 132 -190 132 l-80
0 0 -30z"/>
<path d="M3920 440 c0 -20 5 -30 15 -30 22 0 22 -145 0 -154 -8 -3 -15 -17
-15 -31 0 -24 2 -25 70 -25 l70 0 0 30 c0 17 -4 30 -10 30 -6 0 -10 32 -10 75
0 43 4 75 10 75 6 0 10 14 10 30 l0 30 -70 0 -70 0 0 -30z"/>
<path d="M4620 440 c0 -20 5 -30 15 -30 12 0 15 -16 15 -80 0 -64 -3 -80 -15
-80 -9 0 -15 -9 -15 -25 0 -24 2 -25 70 -25 63 0 70 2 70 20 0 18 2 17 25 -5
46 -47 115 -23 115 39 0 21 -4 27 -17 24 -11 -2 -25 7 -36 25 -15 25 -16 30
-2 43 25 25 19 79 -11 103 -23 18 -41 21 -120 21 l-94 0 0 -30z"/>
</g>
</svg>
